<svg id="Capa_1" data-name="Capa 1" xmlns="http://www.w3.org/2000/svg" xmlns:xlink="http://www.w3.org/1999/xlink" viewBox="0 0 438.98 181.18"><defs><style>.cls-1{fill:url(#GradientFill_2);}.cls-2{fill:#035938;}.cls-3{fill:url(#GradientFill_2-2);}.cls-4{fill:url(#GradientFill_2-3);}.cls-5{fill:url(#linear-gradient);}.cls-6{fill:#007e3d;}</style><radialGradient id="GradientFill_2" cx="409.92" cy="509.28" r="82.14" gradientUnits="userSpaceOnUse"><stop offset="0" stop-color="#ffda01"/><stop offset="1" stop-color="#fdc806"/></radialGradient><radialGradient id="GradientFill_2-2" cx="381.07" cy="507.68" r="29.57" xlink:href="#GradientFill_2"/><radialGradient id="GradientFill_2-3" cx="435.24" cy="507.68" r="29.57" xlink:href="#GradientFill_2"/><linearGradient id="linear-gradient" x1="319.4" y1="459.49" x2="505.26" y2="459.49" gradientUnits="userSpaceOnUse"><stop offset="0" stop-color="#fff"/><stop offset="1" stop-color="#fff" stop-opacity="0"/></linearGradient></defs><title>Corpico_logo</title><path class="cls-1" d="M425,427.81c-45.33,0-88.65,36.9-96.57,82.26-3.82,21.87,1.13,42.32,13.95,57.57,12.53,14.91,31.2,23.12,52.56,23.12,45.33,0,88.65-36.9,96.57-82.26h0c3.82-21.88-1.13-42.32-13.95-57.58C465,436,446.31,427.81,425,427.81Z" transform="translate(-318 -418.69)"/><path class="cls-2" d="M394.89,599.87c-24.1,0-45.25-9.36-59.54-26.36-14.58-17.35-20.24-40.44-16-65,8.65-49.52,56-89.81,105.55-89.81,24.1,0,45.25,9.37,59.54,26.37,14.58,17.35,20.24,40.43,15.95,65h0C491.79,559.59,444.44,599.87,394.89,599.87ZM425,427.81c-45.33,0-88.65,36.9-96.57,82.26-3.82,21.87,1.13,42.32,13.95,57.57,12.53,14.91,31.2,23.12,52.56,23.12,45.33,0,88.65-36.9,96.57-82.26h0c3.82-21.88-1.13-42.32-13.95-57.58C465,436,446.31,427.81,425,427.81Z" transform="translate(-318 -418.69)"/><path class="cls-2" d="M541.61,534a42.67,42.67,0,0,1-6.39.46q-9.78,0-13.87-4.8t-4.09-13.75a73.52,73.52,0,0,1,.54-8.22,72.15,72.15,0,0,1,1.79-9.61,51.86,51.86,0,0,1,3.39-9.35,23.77,23.77,0,0,1,5.3-7.39,19,19,0,0,1,6.48-4,25,25,0,0,1,8.73-1.38c1.11,0,2.25,0,3.42.13s2.27.19,3.3.33,1.95.31,2.76.5,1.43.38,1.87.54a.57.57,0,0,1,.25.67l-1.58,7.27c-.17.39-.42.56-.75.5a29.51,29.51,0,0,0-4.06-.84,34.76,34.76,0,0,0-4.8-.33,13.12,13.12,0,0,0-4.84.79,9.18,9.18,0,0,0-3.51,2.47,16.28,16.28,0,0,0-3,5.55,61.32,61.32,0,0,0-2.17,7.73,76.9,76.9,0,0,0-1.3,8,63.82,63.82,0,0,0-.41,6.39c0,3.34.69,5.78,2.09,7.34s3.84,2.34,7.34,2.34a45.17,45.17,0,0,0,4.81-.25,29.78,29.78,0,0,0,4.55-.83c.44-.11.67,0,.67.42l-.59,7.09c0,.56-.25.89-.58,1A35.6,35.6,0,0,1,541.61,534Z" transform="translate(-318 -418.69)"/><path class="cls-2" d="M553.34,511.31a53.69,53.69,0,0,1,1.34-7.14,33.33,33.33,0,0,1,2.5-6.68,16.89,16.89,0,0,1,4-5.22,20.77,20.77,0,0,1,3-2.09,13.86,13.86,0,0,1,3.05-1.3,18.41,18.41,0,0,1,3.42-.62c1.23-.11,2.62-.17,4.18-.17a26.33,26.33,0,0,1,7.64,1,11.77,11.77,0,0,1,5,2.92,11.26,11.26,0,0,1,2.76,5,27.41,27.41,0,0,1,.83,7.22,53.53,53.53,0,0,1-.45,6.48,54.49,54.49,0,0,1-1.47,7.34,38.35,38.35,0,0,1-2.59,7,17.69,17.69,0,0,1-3.84,5.34,13.81,13.81,0,0,1-5.84,3.26,31.29,31.29,0,0,1-7.86.84,28.29,28.29,0,0,1-7.81-.92,10.64,10.64,0,0,1-5-2.93,11.32,11.32,0,0,1-2.58-5.13,32.38,32.38,0,0,1-.75-7.56A56.89,56.89,0,0,1,553.34,511.31Zm24.31,9.44a38,38,0,0,0,1.67-5.43,54.18,54.18,0,0,0,1-5.85c.22-2,.36-3.67.42-5.17a32.68,32.68,0,0,0-.21-4.06,6.09,6.09,0,0,0-.88-2.63,3.6,3.6,0,0,0-2-1.42,13.22,13.22,0,0,0-3.72-.42,7.18,7.18,0,0,0-5.43,1.93,10.87,10.87,0,0,0-2.38,4,39.27,39.27,0,0,0-1.59,5.55,55.26,55.26,0,0,0-.92,5.93c-.19,2-.29,3.69-.29,5.14a36.56,36.56,0,0,0,.17,3.8,5.25,5.25,0,0,0,.84,2.5,3.47,3.47,0,0,0,2,1.34,15.12,15.12,0,0,0,3.8.38,9.7,9.7,0,0,0,3.13-.42,5.54,5.54,0,0,0,2.13-1.34A12.19,12.19,0,0,0,577.65,520.75Z" transform="translate(-318 -418.69)"/><path class="cls-2" d="M618.58,496.28q-1-.09-1.92-.09c-.56,0-1.3,0-2.22.13a17.26,17.26,0,0,0-2.46.38,1.11,1.11,0,0,0-.92.91l-5.59,35.17a.9.9,0,0,1-.92.83h-8.69c-.61,0-.87-.28-.75-.83l6.68-42.1c.05-.45.36-.72.92-.83,1.06-.28,2.22-.53,3.51-.76s2.54-.4,3.79-.54,2.48-.25,3.68-.33,2.27-.13,3.22-.13c1.39,0,2.55,0,3.46.08s1.77.14,2.55.26c.22.05.31.25.25.58l-1.59,7.18c-.05.28-.25.42-.58.42A24.34,24.34,0,0,0,618.58,496.28Z" transform="translate(-318 -418.69)"/><path class="cls-2" d="M651.57,488.88a13.28,13.28,0,0,1,5.51,2.51,9,9,0,0,1,2.93,4.43,22.4,22.4,0,0,1,.83,6.47q0,2.5-.33,5.93a57.19,57.19,0,0,1-1.13,7,45.92,45.92,0,0,1-2.09,6.84,22,22,0,0,1-3.13,5.64,14.41,14.41,0,0,1-6.18,4.47,27,27,0,0,1-9.69,1.46c-.94,0-2.06,0-3.34-.08s-2.17-.08-2.67-.08a.67.67,0,0,0-.75.66l-2.09,13.7a.94.94,0,0,1-1,.84h-8.69a.59.59,0,0,1-.67-.67v-.17l9-57.21a1.13,1.13,0,0,1,.34-.71,2.59,2.59,0,0,1,1.08-.38q2.84-.58,6.47-1a61.65,61.65,0,0,1,7.06-.42A39.06,39.06,0,0,1,651.57,488.88Zm-18.5,35.59c0,.3,0,.51,0,.62a.73.73,0,0,0,.67.84,8.93,8.93,0,0,0,1.71.21c.7,0,1.77,0,3.21,0a13.37,13.37,0,0,0,3.93-.5,6.35,6.35,0,0,0,2.76-1.76,11.6,11.6,0,0,0,2.21-4,41.56,41.56,0,0,0,1.59-5.76q.63-3.09,1-6.1a47.26,47.26,0,0,0,.33-5c0-2.84-.64-4.74-1.92-5.72s-3.59-1.46-6.93-1.46a13.39,13.39,0,0,0-2.13.13,5.8,5.8,0,0,0-1.21.29,1.06,1.06,0,0,0-.67.5,3.14,3.14,0,0,0-.25.83l-4.09,26A7.75,7.75,0,0,0,633.07,524.47Z" transform="translate(-318 -418.69)"/><path class="cls-2" d="M665.69,532.78l6.85-43a.88.88,0,0,1,.92-.83h8.77c.61,0,.86.27.75.83l-6.85,43a.89.89,0,0,1-.92.83h-8.77C665.83,533.61,665.58,533.33,665.69,532.78Zm8.1-52.12,1.25-8.1a.94.94,0,0,1,1-.84h9.19c.62,0,.86.28.75.84l-1.25,8.1a.93.93,0,0,1-1,.83h-9.27C673.9,481.49,673.68,481.21,673.79,480.66Z" transform="translate(-318 -418.69)"/><path class="cls-2" d="M707.45,534.16a45,45,0,0,1-5.09.29,22.12,22.12,0,0,1-7-1,10.33,10.33,0,0,1-7.1-7.52,25.11,25.11,0,0,1-.75-6.47,64.93,64.93,0,0,1,.38-6.69,45.51,45.51,0,0,1,1.34-7.18,39.37,39.37,0,0,1,2.5-6.85,21.22,21.22,0,0,1,3.88-5.68,16.55,16.55,0,0,1,5.76-3.71,21.84,21.84,0,0,1,7.94-1.3,33.37,33.37,0,0,1,4.72.29,14.66,14.66,0,0,1,3.38.88.61.61,0,0,1,.34.67l-1.59,6.93c-.11.34-.31.45-.58.34a17.82,17.82,0,0,0-5.94-.84,11.33,11.33,0,0,0-4,.63,6.27,6.27,0,0,0-2.8,2.21,13.12,13.12,0,0,0-2,4q-.78,2.46-1.37,5.22a48,48,0,0,0-.84,5.47c-.17,1.81-.25,3.38-.25,4.72q0,4.26,1.67,6t5.6,1.71A24.93,24.93,0,0,0,709,526c1.22-.17,2.31-.36,3.26-.58a1.07,1.07,0,0,1,.5,0c.17,0,.25.16.25.38l-.67,6.77c-.11.39-.27.61-.5.66A20.92,20.92,0,0,1,707.45,534.16Z" transform="translate(-318 -418.69)"/><path class="cls-2" d="M719.23,511.31a53.69,53.69,0,0,1,1.34-7.14,32.75,32.75,0,0,1,2.51-6.68,16.6,16.6,0,0,1,4-5.22,20.71,20.71,0,0,1,3-2.09,14.07,14.07,0,0,1,3.05-1.3,18.71,18.71,0,0,1,3.42-.62c1.23-.11,2.62-.17,4.18-.17a26.33,26.33,0,0,1,7.64,1A11.87,11.87,0,0,1,753.4,492a11.34,11.34,0,0,1,2.75,5,27.41,27.41,0,0,1,.83,7.22,53.53,53.53,0,0,1-.45,6.48,56,56,0,0,1-1.46,7.34,39.12,39.12,0,0,1-2.6,7,17.52,17.52,0,0,1-3.84,5.34,13.81,13.81,0,0,1-5.84,3.26,31.29,31.29,0,0,1-7.86.84,28.21,28.21,0,0,1-7.8-.92,10.54,10.54,0,0,1-5-2.93,11.24,11.24,0,0,1-2.59-5.13,32.38,32.38,0,0,1-.75-7.56A56.89,56.89,0,0,1,719.23,511.31Zm24.31,9.44a36.8,36.8,0,0,0,1.67-5.43,54.18,54.18,0,0,0,1-5.85c.23-2,.36-3.67.42-5.17a32.68,32.68,0,0,0-.21-4.06,6.09,6.09,0,0,0-.88-2.63,3.6,3.6,0,0,0-2-1.42,13.22,13.22,0,0,0-3.72-.42,7.19,7.19,0,0,0-5.43,1.93,10.87,10.87,0,0,0-2.38,4,39.27,39.27,0,0,0-1.59,5.55,55.26,55.26,0,0,0-.92,5.93c-.19,2-.29,3.69-.29,5.14a36.56,36.56,0,0,0,.17,3.8,5.25,5.25,0,0,0,.84,2.5,3.47,3.47,0,0,0,2,1.34,15.12,15.12,0,0,0,3.8.38,9.7,9.7,0,0,0,3.13-.42,5.54,5.54,0,0,0,2.13-1.34A12.19,12.19,0,0,0,743.54,520.75Z" transform="translate(-318 -418.69)"/><path class="cls-3" d="M392.73,476.52a5.13,5.13,0,0,0-4.43-2.43,6.57,6.57,0,0,0-4.67,2.08L357,518.11a6.39,6.39,0,0,0-.74,2,5.06,5.06,0,0,0,3.85,6l14.18.05-1.93,11a3.48,3.48,0,0,0,.74,2.85,3.44,3.44,0,0,0,2.65,1.21h4.18a4.13,4.13,0,0,0,4-3.37l2.05-11.7h14.21l.31,0A6.76,6.76,0,0,0,406,520.8c.11-.65.14-.8-13-43.82Z" transform="translate(-318 -418.69)"/><path class="cls-4" d="M447.1,477l-.2-.46a5.13,5.13,0,0,0-4.43-2.43,6.57,6.57,0,0,0-4.67,2.08l-26.65,41.94a6,6,0,0,0-.74,2,5.06,5.06,0,0,0,3.84,6l14.19.05-1.93,11a3.48,3.48,0,0,0,.74,2.85,3.44,3.44,0,0,0,2.65,1.21h4.18a4.14,4.14,0,0,0,4-3.37l2.05-11.7h14.21l.31,0a6.76,6.76,0,0,0,5.51-5.36C460.25,520.15,460.28,520,447.1,477Z" transform="translate(-318 -418.69)"/><path class="cls-5" d="M484.49,445.06c-14.29-17-35.44-26.37-59.54-26.37-38.45,0-75.48,24.3-94.23,58.3a60.92,60.92,0,0,0,7.38,5.41c8.71,5.58,20,10.13,33.16,13.24l12.37-19.47a6.57,6.57,0,0,1,4.67-2.08,5.13,5.13,0,0,1,4.43,2.43l.21.46,7,22.87c4.06.26,8.18.44,12.4.44,3.49,0,6.93-.11,10.33-.29l15.14-23.83a6.57,6.57,0,0,1,4.67-2.08,5.13,5.13,0,0,1,4.43,2.43l.2.46c2.31,7.52,4.19,13.66,5.75,18.79,15.77-3.68,29-9.43,38.25-16.54a46.74,46.74,0,0,0,7.58-7.19A72.87,72.87,0,0,0,484.49,445.06Z" transform="translate(-318 -418.69)"/><path class="cls-6" d="M391,477.57a3.07,3.07,0,0,0-2.71-1.46,4.53,4.53,0,0,0-3.21,1.45L358.73,519.1a4.4,4.4,0,0,0-.51,1.39,3.07,3.07,0,0,0,2.32,3.68h16.12l-2.33,13.37a1.38,1.38,0,0,0,1.4,1.7h4.18a2.11,2.11,0,0,0,2-1.7l2.34-13.37h15.9a4.71,4.71,0,0,0,3.84-3.72C404.05,520.13,391,477.57,391,477.57Z" transform="translate(-318 -418.69)"/><path class="cls-6" d="M445.18,477.57a3.07,3.07,0,0,0-2.71-1.46,4.55,4.55,0,0,0-3.22,1.45L412.9,519.1a4.4,4.4,0,0,0-.51,1.39,3.07,3.07,0,0,0,2.32,3.68h16.12l-2.33,13.37a1.38,1.38,0,0,0,1.4,1.7h4.18a2.11,2.11,0,0,0,2-1.7l2.34-13.37h15.9a4.71,4.71,0,0,0,3.84-3.72C458.21,520.13,445.18,477.57,445.18,477.57Z" transform="translate(-318 -418.69)"/></svg>